<svg xmlns="http://www.w3.org/2000/svg" viewBox="-1 11 68 68">
  <!-- Dark navy background with rounded corners -->
  <rect x="-1" y="11" width="68" height="68" rx="10" fill="#0d1f2d"/>
  <!-- Apio mark polygons in white, extracted from logo-horizontal.svg -->
  <g fill="white">
    <polygon points="26.45,57.41 27.16,57.69 34.13,60.47 36.91,53.6 29.94,50.82 29.23,50.54 28.52,50.25 22.09,47.69 19.34,54.58 25.74,57.13"/>
    <polygon points="33.15,40.83 33.86,41.11 40.83,43.89 43.61,37.02 36.64,34.24 35.94,33.96 35.22,33.67 28.73,31.08 25.98,37.97 32.44,40.55"/>
    <polygon points="27.74,29.04 28.45,29.33 35.03,31.95 37.74,25.27 31.15,22.64 30.44,22.36 29.73,22.08 22.76,19.3 20.06,25.98 27.03,28.76"/>
    <polygon points="34.27,62.17 33.56,61.89 26.59,59.11 23.77,66.07 30.74,68.85 31.45,69.13 32.16,69.41 38.75,72.04 41.56,65.08 34.97,62.45"/>
    <polygon points="38.9,52.75 45.48,55.38 48.27,48.5 41.68,45.87 40.97,45.59 40.26,45.31 33.29,42.53 30.51,49.4 37.48,52.18 38.19,52.47"/>
  </g>
</svg>
